<?xml version="1.0" encoding="utf-8"?>
<!-- Generator: Adobe Illustrator 23.0.6, SVG Export Plug-In . SVG Version: 6.00 Build 0)  -->
<svg version="1.1" id="Layer_1" xmlns="http://www.w3.org/2000/svg" xmlns:xlink="http://www.w3.org/1999/xlink" x="0px" y="0px"
	 viewBox="0 0 467.1 126.4" style="enable-background:new 0 0 467.1 126.4;" xml:space="preserve">
<style type="text/css">
	.st0{fill:#BE1E2D;}
</style>
<g>
	<g>
		<path class="st0" d="M171,48.2c-1.2-0.2-2.7-0.4-4.3-0.4h0c-6.7,0-10.8,4.5-12.3,6.6l-1.6-4.3c-0.4-1-0.8-1.4-1.9-1.4h-3.5
			c-1.1,0-2.1,0.9-2.1,2.1v39.6c0,0.6,0.2,1.1,0.6,1.4c0.4,0.4,0.9,0.7,1.5,0.7h7.3c1.4,0,2.5-0.5,2.5-2.1V63.2
			c0.7-1.5,3.4-4.3,7.9-4.5c0.2,0,0.3,0,0.5,0c2,0,3,0.4,4.1,0.8c1,0.5,2.1,0.1,2.6-0.9l2.8-6.4C175.9,50.1,174,48.8,171,48.2z"/>
		<path class="st0" d="M220.2,26.3h-7.7c-1,0-2.1,1-2.1,2.1v21.3c-2-0.8-6.2-1.8-10.5-1.8c-13.1,0-21.7,10-21.7,22.8
			c0,13.3,9,22.9,21,22.9c9.3,0,14.3-6.5,14.3-6.5l1.1,3.4c0.4,1.2,1.1,2.1,2.1,2.1h3.5c1.1,0,2.1-0.9,2.1-2.1V28.3
			C222.3,27.3,221.4,26.3,220.2,26.3z M210.5,76.8c-0.9,2.5-4,6.1-9.7,6.1c-6.8,0-10.3-6-10.3-12.1c0-6.2,3.7-12,10.9-12
			c5.5,0,9.1,2.5,9.1,2.5V76.8z"/>
		<path class="st0" d="M253.9,47.9c-13,0-22.1,10.5-22.1,22.8c0,12.5,9.1,22.9,22.2,22.9c7.1,0,12.5-2.7,16.3-6c1-1,0.9-2,0.2-2.8
			l-3.7-4.9c-0.7-0.9-1.8-0.9-2.8,0c-2,1.6-5,3.2-9.4,3.2c-6.4,0-10.8-4.7-10.9-10.1h28.1c0.9,0,2-0.8,2.1-2
			c0.1-0.7,0.2-2.2,0.2-2.8C274,56.3,265.2,47.9,253.9,47.9z M244.3,65.2c0.6-4.4,4-7.6,9.3-7.6c4.8,0,8.2,3.3,8.4,7.6H244.3z"/>
		<path class="st0" d="M304.3,47.9c-6.7,0-10.8,4.5-12.3,6.6l-1.6-4.3c-0.4-1-0.9-1.4-1.9-1.4h-3.5c-1.1,0-2.1,0.9-2.1,2.1v39.6
			c0,1.1,1,2.1,2.1,2.1h7.3c1.4,0,2.5-0.5,2.5-2.1V63.2c0.8-1.5,3.6-4.5,8.3-4.5c2,0,3,0.4,4.1,0.8c1.1,0.5,2.1,0.1,2.6-0.9l2.8-6.4
			C313.8,49.3,309.5,47.9,304.3,47.9z"/>
		<path d="M371,26.3h-9c-1.1,0-1.8,0.9-1.8,1.8v39.6c0,8-5.6,13.6-13.8,13.6c-8.2,0-13.7-5.6-13.7-13.7V28.1c0-0.9-0.7-1.8-1.8-1.8
			h-9c-0.9,0-1.8,0.9-1.8,1.8v40.2c0,14.4,11.5,25.3,26.3,25.3c15,0,26.5-10.9,26.5-25.3V28.1C372.8,27.1,371.9,26.3,371,26.3z"/>
		<path d="M407.6,47.9c-9.3,0-14.3,6.5-14.3,6.5l-1.1-3.5c-0.4-1.2-1-2.1-2.1-2.1h-3.5c-1.1,0-2.1,0.9-2.1,2.1v62.2
			c0,1.1,0.9,2.1,2.1,2.1h7.7c1.1,0,2.1-1.1,2.1-2.1V91.8c2,0.7,6.2,1.8,10.5,1.8c13.1,0,21.7-10,21.7-22.8
			C428.5,57.5,419.5,47.9,407.6,47.9z M405.4,82.8c-5.5,0-9.1-2.5-9.1-2.5V64.7c1-2.5,4-6.1,9.7-6.1c6.8,0,10.3,6,10.3,12.1
			C416.3,77,412.6,82.8,405.4,82.8z"/>
	</g>
	<g>
		<path class="st0" d="M129.5,21.8H75.2c-2.5,0-4.5,2-4.5,4.5v2.3h-2.3c-6.3,0-13.9,3.1-13.9,18.1c0,14.9,7.6,18.1,13.9,18.1h2.3
			v10.7c0,3.3,0.9,6.4,2.5,9.2H56.4c-2.5,0-4.5,1.9-4.5,4.4c0,2.5,2,4.5,4.5,4.5h59.6c10,0,18.1-8.1,18.1-18.1v-49
			C134,23.7,132,21.8,129.5,21.8z M125.2,30.8v44.6c0,5.1-4.1,9.2-9.2,9.2h-15.5c-5.1,0-9.2-4.1-9.2-9.2V30.8H125.2z M70.8,37.6
			v18.2h-2.3c-2.1,0-5,0-5-9.1c0-9.2,3-9.2,5-9.2H70.8z"/>
		<path class="st0" d="M39.9,85.8c-0.9,0.8-1.4,1.9-1.4,3.2c0,1.2,0.5,2.3,1.2,3c0.8,0.9,1.9,1.4,3.2,1.4c1.2,0,2.4-0.5,3.1-1.3
			c0.8-0.8,1.3-1.9,1.3-3.1c0-1.2-0.5-2.3-1.3-3.1C44.6,84.3,41.5,84.3,39.9,85.8z"/>
	</g>
</g>
</svg>
